<?xml version="1.0" standalone="no"?>
<!DOCTYPE svg PUBLIC "-//W3C//DTD SVG 20010904//EN"
 "http://www.w3.org/TR/2001/REC-SVG-20010904/DTD/svg10.dtd">
<svg version="1.0" xmlns="http://www.w3.org/2000/svg"
 width="741.000000pt" height="741.000000pt" viewBox="0 0 741.000000 741.000000"
 preserveAspectRatio="xMidYMid meet">
<metadata>
Created by potrace 1.14, written by Peter Selinger 2001-2017
</metadata>
<g transform="translate(0.000000,741.000000) scale(0.100000,-0.100000)"
fill="#000000" stroke="none">
<path d="M4010 6735 c0 -6 -32 -11 -72 -12 -45 -2 -74 -7 -80 -15 -5 -8 -8 -9
-8 -2 0 12 -80 1 -110 -15 -8 -4 -25 -7 -37 -6 -13 1 -23 -2 -23 -6 0 -5 -6
-6 -14 -3 -8 3 -16 1 -19 -3 -3 -5 -19 -8 -36 -7 -24 1 -28 -1 -24 -15 5 -13
3 -14 -7 -4 -9 8 -19 9 -32 2 -11 -6 -18 -6 -18 0 0 5 -10 4 -24 -2 -13 -7
-22 -16 -18 -22 3 -5 -1 -4 -10 3 -13 10 -19 10 -32 -3 -9 -10 -16 -12 -16 -5
0 6 -5 8 -10 5 -6 -4 -8 -10 -6 -14 3 -4 -8 -6 -25 -5 -16 1 -29 -2 -29 -7 0
-5 -3 -8 -7 -8 -22 4 -43 -2 -38 -10 3 -5 0 -13 -6 -17 -8 -4 -9 -3 -5 4 4 7
1 12 -8 12 -9 0 -16 -5 -16 -11 0 -5 -5 -7 -11 -4 -6 4 -17 -1 -25 -11 -9 -11
-13 -13 -9 -6 10 19 -24 14 -56 -9 -18 -12 -29 -16 -29 -8 0 9 -3 9 -14 0 -8
-7 -22 -13 -32 -16 -11 -2 -38 -10 -61 -18 -22 -9 -44 -13 -47 -10 -3 4 -6 1
-6 -6 0 -7 -4 -9 -10 -6 -5 3 -10 1 -10 -6 0 -7 -3 -10 -6 -6 -3 3 -28 -3 -54
-13 -26 -10 -51 -16 -56 -12 -4 4 -4 2 -1 -4 4 -6 -13 -16 -43 -24 -27 -7 -47
-17 -44 -22 3 -4 0 -8 -5 -8 -6 0 -11 5 -11 12 0 6 -7 3 -16 -8 -8 -10 -13
-14 -10 -7 6 11 -23 1 -74 -26 -8 -4 -23 -7 -33 -5 -12 1 -17 -2 -14 -10 4 -9
-3 -12 -19 -10 -13 1 -24 -2 -24 -7 0 -6 -5 -7 -11 -4 -5 4 -20 -1 -31 -12
-15 -12 -19 -13 -14 -3 6 11 4 11 -6 -1 -7 -9 -15 -16 -18 -16 -28 -2 -85 -26
-97 -40 -8 -10 -12 -12 -8 -5 4 7 0 12 -10 12 -10 0 -13 -5 -9 -12 5 -8 2 -9
-9 -5 -10 4 -17 1 -17 -5 0 -6 -3 -8 -6 -5 -4 3 -16 1 -28 -5 -11 -7 -24 -11
-28 -10 -5 1 -8 -2 -8 -8 0 -5 -8 -10 -18 -10 -10 0 -27 -7 -38 -15 -10 -8
-26 -15 -35 -15 -26 0 -90 -36 -82 -45 4 -5 1 -4 -9 3 -9 7 -18 9 -20 5 -1 -4
-21 -17 -43 -28 -22 -10 -49 -26 -59 -35 -17 -13 -18 -13 -12 0 4 8 0 6 -8 -4
-9 -11 -16 -17 -16 -13 0 4 -11 -3 -25 -15 -13 -11 -22 -24 -20 -29 3 -4 -4
-5 -15 -2 -11 3 -20 0 -20 -6 0 -6 -6 -11 -13 -11 -7 0 -29 -14 -48 -30 -28
-26 -31 -33 -19 -40 18 -12 40 -13 40 -2 0 4 16 8 36 9 19 1 43 8 52 15 13 11
15 11 7 -2 -8 -13 -7 -13 8 -1 15 12 17 11 17 -3 0 -9 -4 -16 -10 -16 -5 0
-10 -6 -10 -14 0 -7 -13 -29 -30 -47 -16 -19 -28 -39 -25 -46 2 -8 -2 -10 -12
-6 -13 5 -15 2 -9 -12 4 -11 4 -16 0 -13 -7 8 -39 -20 -39 -35 0 -5 -9 -15
-19 -23 -11 -8 -16 -14 -12 -14 5 0 -3 -12 -18 -26 -14 -15 -26 -33 -26 -41 0
-7 -6 -16 -14 -19 -8 -3 -17 -17 -20 -30 -4 -14 -11 -22 -16 -19 -5 3 -7 -4
-5 -15 2 -11 0 -20 -5 -20 -5 0 -17 -17 -27 -37 -9 -21 -20 -40 -23 -43 -18
-15 -50 -81 -44 -91 4 -7 3 -9 -3 -6 -10 7 -28 -20 -25 -35 1 -5 -2 -8 -8 -8
-5 0 -10 -6 -10 -14 0 -7 -7 -19 -15 -26 -8 -7 -12 -16 -9 -21 3 -5 1 -9 -3
-9 -5 0 -17 -19 -28 -41 -32 -67 -39 -79 -48 -79 -4 0 -5 -4 -2 -10 3 -5 -3
-15 -15 -22 -11 -7 -20 -18 -20 -25 0 -7 -9 -23 -20 -35 -10 -13 -19 -27 -19
-31 0 -5 -12 -20 -26 -33 -15 -14 -24 -31 -21 -39 3 -10 0 -12 -11 -8 -10 4
-14 2 -10 -4 4 -6 0 -14 -9 -17 -9 -4 -14 -9 -11 -12 3 -4 -4 -15 -16 -25 -12
-10 -18 -18 -13 -19 5 0 -3 -9 -18 -21 -14 -11 -26 -28 -26 -36 0 -9 -3 -14
-6 -10 -8 7 -100 -83 -96 -95 1 -5 -2 -7 -7 -4 -5 4 -13 0 -18 -8 -4 -8 -11
-15 -15 -15 -15 -2 -46 -39 -40 -47 4 -4 1 -4 -5 0 -17 10 -66 -40 -57 -57 5
-7 0 -6 -12 3 -10 8 -16 10 -12 6 5 -5 -1 -16 -12 -23 -11 -8 -17 -19 -14 -25
4 -7 2 -8 -5 -4 -6 4 -26 -8 -46 -30 -19 -20 -35 -34 -35 -30 0 6 -46 -36
-121 -109 -10 -9 -15 -25 -12 -36 3 -12 9 -16 12 -11 3 5 13 9 21 9 22 0 81
11 117 22 17 5 34 7 37 3 3 -3 6 0 6 6 0 6 7 9 15 6 8 -4 15 -10 15 -16 0 -5
-4 -7 -9 -3 -5 3 -12 -4 -16 -15 -3 -11 -13 -20 -21 -20 -8 0 -14 -5 -14 -11
0 -5 -5 -7 -10 -4 -6 3 -10 2 -10 -4 0 -5 -17 -20 -37 -32 -21 -13 -40 -27
-41 -31 -2 -5 -8 -6 -13 -2 -5 3 -9 0 -9 -6 0 -6 -4 -9 -8 -6 -5 3 -14 -4 -22
-14 -8 -10 -17 -17 -20 -15 -4 3 -18 -7 -30 -20 -13 -14 -32 -25 -41 -25 -12
0 -16 -5 -13 -14 4 -11 0 -13 -18 -9 -18 4 -20 3 -8 -6 13 -9 12 -11 -5 -12
-11 -1 -23 -1 -28 0 -4 0 -7 -3 -7 -8 0 -5 -16 -15 -35 -21 -19 -6 -33 -15
-31 -18 2 -4 -8 -8 -22 -9 -14 0 -32 -9 -39 -19 -8 -11 -13 -13 -13 -5 0 11
-3 11 -15 1 -8 -7 -15 -10 -15 -6 0 4 -12 -2 -27 -11 -16 -11 -24 -13 -19 -5
6 11 4 11 -10 3 -27 -14 -58 -24 -67 -22 -5 1 -6 -3 -2 -9 3 -5 -1 -10 -10
-10 -9 0 -13 -4 -10 -10 4 -6 -1 -7 -11 -3 -14 5 -16 3 -11 -11 4 -10 3 -15
-3 -11 -6 3 -10 2 -10 -4 0 -5 -9 -13 -20 -16 -36 -11 -21 -44 15 -35 6 1 17
3 25 3 8 0 18 5 22 11 5 7 8 6 8 -3 0 -10 3 -11 13 -2 10 8 14 7 14 -4 0 -8
-4 -15 -9 -15 -5 0 -6 -4 -3 -10 3 -5 -1 -10 -10 -10 -9 0 -13 -5 -10 -10 3
-6 -1 -13 -9 -16 -9 -3 -16 -12 -16 -20 0 -8 -5 -14 -11 -14 -5 0 -7 -5 -4
-10 3 -5 1 -10 -5 -10 -6 0 -8 -4 -5 -10 3 -5 1 -10 -6 -10 -7 0 -10 -3 -6 -6
3 -4 -1 -13 -9 -21 -8 -9 -13 -22 -10 -29 3 -8 0 -11 -10 -7 -10 4 -12 0 -8
-11 3 -9 2 -16 -4 -16 -5 0 -13 -7 -16 -16 -4 -10 -2 -13 7 -8 6 4 3 -2 -7
-14 -11 -12 -15 -22 -11 -22 4 0 2 -8 -7 -17 -8 -10 -14 -30 -13 -45 0 -15 -2
-25 -6 -22 -4 2 -8 -4 -8 -13 0 -23 -7 -63 -16 -88 -6 -16 -5 -17 4 -5 9 12
11 11 11 -7 0 -16 5 -21 15 -17 8 3 13 11 12 17 -1 7 6 11 15 9 12 -2 16 2 12
12 -4 11 0 14 15 11 14 -2 21 1 21 11 0 8 5 12 10 9 6 -3 10 -2 10 4 0 6 6 8
13 5 7 -2 24 7 37 21 22 23 25 24 41 9 14 -12 16 -21 9 -34 -5 -10 -8 -32 -6
-49 2 -17 -1 -31 -5 -31 -5 0 -9 -5 -9 -11 0 -5 3 -8 7 -6 5 3 8 -12 8 -33 1
-21 -3 -36 -7 -34 -4 3 -5 -2 -2 -10 3 -9 11 -16 18 -16 7 0 7 -3 1 -8 -13
-10 -16 -44 -2 -35 6 4 8 -2 5 -14 -3 -11 -1 -28 4 -37 6 -11 5 -16 -4 -16
-10 0 -10 -2 1 -9 7 -5 10 -14 7 -20 -4 -6 -2 -11 4 -11 7 0 9 -7 6 -16 -4 -9
-1 -23 5 -30 6 -8 13 -31 15 -51 2 -21 5 -44 6 -50 1 -7 6 -13 11 -13 5 0 7
-7 3 -15 -3 -8 -1 -15 4 -15 5 0 6 -7 3 -17 -5 -12 -3 -14 7 -8 10 6 12 4 7
-10 -4 -9 -2 -24 4 -31 6 -7 8 -18 5 -23 -4 -6 3 -15 15 -21 14 -8 18 -15 11
-22 -9 -9 4 -64 18 -78 3 -3 11 -16 18 -29 11 -19 11 -22 0 -16 -10 6 -11 5 0
-6 6 -7 12 -21 12 -31 0 -10 5 -18 10 -18 6 0 10 -9 10 -19 0 -11 5 -23 10
-26 6 -4 8 -11 5 -16 -4 -5 -1 -9 4 -9 6 0 10 -3 9 -7 -3 -18 15 -62 23 -57 5
3 9 2 8 -3 -4 -24 2 -53 11 -48 6 4 10 -7 10 -27 0 -22 3 -29 9 -20 6 10 10 9
14 -7 3 -12 1 -19 -4 -15 -5 3 -6 -2 -3 -10 3 -9 10 -16 16 -16 5 0 7 -4 4 -9
-3 -5 3 -20 14 -33 11 -14 16 -28 13 -32 -3 -3 -2 -6 4 -6 6 0 14 -7 17 -16 3
-8 2 -12 -4 -9 -6 3 -10 1 -10 -4 0 -6 8 -11 17 -11 9 0 14 -3 10 -6 -7 -8 41
-106 57 -116 7 -5 6 -8 -4 -8 -13 0 -13 -1 0 -10 8 -5 15 -15 15 -22 1 -7 6
-12 13 -11 7 2 9 -4 5 -14 -4 -9 -2 -14 3 -10 6 3 11 -4 11 -15 1 -11 9 -28
17 -37 9 -10 13 -21 9 -24 -3 -4 -1 -7 5 -7 7 0 12 -6 12 -14 0 -8 5 -18 12
-22 7 -5 8 -3 3 6 -5 9 -4 11 4 6 6 -4 9 -12 6 -17 -4 -5 5 -20 19 -34 15 -14
26 -30 26 -35 0 -14 53 -60 62 -54 5 3 8 2 7 -3 -3 -20 2 -34 11 -28 5 3 10 1
10 -5 0 -15 25 -40 40 -40 6 0 29 -9 51 -19 21 -11 36 -14 32 -9 -4 7 -1 8 8
2 8 -4 20 -9 28 -11 8 -1 17 -6 20 -12 4 -6 17 -9 29 -6 13 2 20 0 17 -6 -6
-8 11 -13 43 -12 6 1 12 -3 12 -7 0 -4 7 -11 16 -14 9 -4 13 -2 8 5 -3 6 5 4
18 -5 14 -9 28 -13 31 -9 4 3 7 2 7 -4 0 -5 7 -10 15 -11 8 -1 22 -3 30 -4 8
-1 15 -6 15 -12 0 -6 5 -4 10 4 6 9 10 10 10 3 0 -10 39 -30 48 -24 1 1 18 -6
38 -14 20 -8 45 -15 54 -15 10 0 21 -6 23 -12 4 -10 8 -9 16 2 6 8 11 10 11 5
0 -6 14 -16 30 -22 17 -6 28 -7 24 -2 -8 14 6 10 22 -6 17 -17 39 -21 29 -5
-9 15 1 12 18 -5 8 -8 29 -16 46 -17 17 -1 31 -6 31 -11 0 -4 4 -6 9 -2 5 3
12 1 16 -4 3 -5 13 -10 23 -11 54 -3 70 -6 69 -14 -2 -10 63 -27 75 -20 5 3 8
0 8 -6 0 -7 7 -10 15 -6 8 3 15 1 15 -4 0 -5 9 -7 20 -5 11 2 20 -1 20 -6 0
-6 4 -7 10 -4 5 3 10 2 10 -4 0 -6 6 -8 14 -5 8 3 17 1 20 -5 4 -6 13 -8 20
-5 7 3 21 -2 30 -11 9 -9 16 -12 16 -6 0 7 6 8 18 2 17 -9 99 -34 117 -35 6
-1 12 -4 15 -7 3 -4 21 -9 41 -12 19 -2 45 -9 56 -16 27 -14 36 -14 27 0 -3 6
7 4 22 -4 16 -8 35 -12 43 -9 8 3 11 0 7 -7 -4 -7 -2 -9 7 -5 8 3 18 1 22 -5
3 -6 -1 -14 -9 -17 -9 -3 -13 -11 -9 -18 3 -6 -3 -3 -14 7 -17 15 -23 16 -34
5 -8 -7 -25 -13 -39 -12 -14 0 -29 -2 -35 -5 -16 -9 -29 -8 -37 4 -5 7 -8 6
-8 -1 0 -7 -17 -13 -37 -14 -21 -1 -50 -2 -66 -3 -15 -1 -27 -5 -27 -9 0 -4
-7 -4 -17 -1 -9 4 -14 2 -11 -3 4 -5 -13 -8 -38 -7 -27 0 -44 -3 -44 -10 0 -7
-5 -5 -10 3 -7 10 -12 12 -17 4 -5 -6 -23 -10 -40 -9 -18 1 -33 -2 -33 -6 0
-4 -8 -5 -19 -2 -13 3 -20 -2 -24 -17 -5 -19 -2 -21 17 -18 13 3 31 -1 41 -8
12 -9 25 -10 41 -4 13 5 23 6 23 2 -3 -18 2 -26 9 -15 6 10 14 9 35 -2 20 -10
27 -11 27 -2 0 8 3 8 9 -1 4 -7 18 -14 29 -15 12 -1 22 -4 22 -8 0 -4 9 -9 20
-12 13 -3 18 -1 13 6 -4 7 5 4 21 -6 16 -11 39 -17 53 -14 16 3 27 -1 30 -10
5 -12 7 -12 14 -1 6 8 9 9 9 1 0 -6 11 -10 25 -9 14 2 22 -1 18 -6 -3 -6 3 -7
16 -3 11 3 21 2 21 -3 0 -8 6 -10 50 -14 11 -1 20 -7 20 -13 0 -5 5 -3 10 5 6
10 10 11 10 3 0 -7 9 -13 20 -13 11 0 20 -5 20 -11 0 -6 5 -7 13 -2 19 12 38
12 30 0 -4 -6 0 -8 10 -4 9 3 18 1 21 -6 3 -9 7 -9 14 1 7 11 10 11 15 -2 4
-9 11 -16 17 -16 6 0 8 5 4 11 -3 6 5 3 20 -6 17 -11 26 -13 26 -5 0 7 6 6 16
-4 18 -19 38 -21 28 -4 -5 9 -2 9 9 -1 9 -7 17 -10 17 -6 0 4 7 2 15 -5 8 -7
15 -9 15 -5 0 4 6 3 13 -4 10 -8 17 -7 27 2 10 9 11 9 6 0 -6 -12 18 -19 47
-14 4 0 7 -4 7 -10 0 -8 5 -8 15 1 10 8 15 9 15 2 0 -7 7 -9 17 -5 12 5 14 3
8 -7 -6 -10 -4 -12 8 -7 10 3 17 2 17 -4 0 -6 8 -5 21 2 17 9 20 8 14 -2 -6
-9 -3 -11 8 -6 10 3 17 2 17 -2 0 -5 9 -7 20 -4 12 3 20 0 20 -7 0 -7 7 -10
16 -6 9 4 24 1 32 -6 13 -11 14 -11 7 2 -8 13 -6 13 8 2 9 -8 21 -11 27 -7 5
3 10 2 10 -4 0 -6 15 -9 34 -7 19 1 33 -1 31 -5 -8 -12 33 -17 44 -6 8 8 11 7
11 -2 0 -9 10 -12 30 -9 17 3 33 1 36 -3 2 -5 11 -6 19 -2 8 3 15 1 15 -5 0
-12 18 -11 39 2 9 6 12 5 8 -1 -4 -7 8 -11 31 -11 20 -1 56 -3 80 -6 26 -4 42
-2 42 5 0 6 5 7 13 2 13 -8 127 -11 127 -3 0 3 16 5 35 4 21 -1 35 3 35 10 0
7 3 6 9 -2 10 -17 21 -17 31 -3 12 21 39 1 34 -25 -2 -13 0 -24 6 -24 5 0 10
4 10 9 0 5 9 11 21 14 14 4 18 10 13 18 -5 9 -2 10 9 6 11 -4 17 -1 17 8 0 8
6 15 13 15 19 0 49 35 40 45 -5 4 -3 5 3 2 14 -8 37 17 26 28 -4 5 -1 5 6 1
14 -9 56 27 45 38 -4 3 1 6 11 6 9 0 19 7 22 15 3 8 14 17 25 20 10 4 19 11
19 16 0 6 -6 7 -12 3 -8 -4 -10 -3 -5 2 5 5 12 9 15 9 16 1 32 17 26 27 -4 7
-2 8 5 4 6 -4 14 0 17 8 3 9 13 16 21 16 8 0 11 5 8 10 -3 6 -1 10 4 10 6 0
10 6 8 13 -1 6 3 11 9 10 7 -1 18 10 25 26 8 15 19 29 24 29 6 1 10 5 11 10 2
19 17 41 25 37 4 -3 6 4 4 15 -2 11 0 18 4 15 12 -7 23 24 14 37 -3 7 -1 8 5
4 11 -6 16 5 13 26 0 4 6 5 14 2 11 -5 13 -2 9 10 -4 9 0 24 9 34 8 9 17 28
19 42 1 14 10 31 18 38 13 12 13 13 0 6 -12 -7 -13 -5 -3 8 7 8 10 18 6 21 -3
4 -2 7 4 7 10 0 22 40 26 88 1 12 6 22 10 22 5 0 6 4 2 9 -3 5 -1 12 3 15 5 3
9 22 10 42 1 20 5 41 10 48 4 6 8 28 7 48 0 21 4 38 9 38 6 0 5 5 -1 11 -12
12 -7 39 8 39 5 0 9 -6 9 -14 0 -8 7 -16 15 -20 8 -3 15 -9 14 -13 -2 -15 13
-53 22 -53 5 0 9 -9 9 -21 0 -11 5 -17 10 -14 9 5 15 -15 11 -38 0 -4 4 -7 9
-7 6 0 10 -9 10 -19 0 -10 7 -22 16 -25 8 -3 12 -2 9 4 -3 5 4 14 15 20 11 6
18 15 15 20 -3 5 -1 19 6 31 7 14 7 19 0 15 -6 -4 -2 12 8 34 10 22 17 52 16
65 -2 17 1 22 11 18 8 -3 14 -2 13 3 -4 24 2 65 9 60 5 -3 8 8 7 25 -1 16 2
32 7 35 5 3 6 35 4 70 -4 48 -2 63 7 57 9 -5 9 -3 0 9 -7 8 -10 18 -6 21 3 4
2 7 -3 7 -5 0 -10 12 -11 28 -2 36 -7 54 -18 72 -5 8 -10 17 -10 20 -4 25 -18
49 -27 44 -6 -4 -8 -2 -5 4 10 14 -3 43 -15 36 -5 -4 -8 4 -6 16 1 13 11 24
21 26 10 1 14 -2 11 -8 -5 -7 2 -9 19 -6 15 3 24 2 22 -2 -3 -5 2 -10 10 -14
8 -3 15 0 15 7 0 8 3 8 9 -1 5 -8 20 -15 35 -15 14 -1 26 -6 26 -10 0 -5 4 -6
9 -2 5 3 17 -2 25 -11 12 -11 16 -12 16 -2 0 10 3 9 10 -2 9 -13 10 -13 10 0
0 12 2 12 9 2 12 -19 59 -42 75 -36 8 3 17 1 21 -5 9 -15 28 -14 20 1 -4 7 -1
6 7 -3 7 -9 23 -15 35 -14 12 1 21 -1 19 -4 -2 -3 2 -12 10 -19 8 -7 14 -10
14 -6 0 3 8 0 17 -7 15 -12 16 -12 8 1 -8 13 -7 13 9 0 38 -30 69 -10 40 27
-9 10 -12 12 -8 4 4 -9 3 -12 -4 -7 -6 4 -9 13 -5 21 3 8 1 15 -3 15 -5 0 -9
23 -9 50 0 28 -2 50 -5 50 -5 0 -10 28 -13 68 0 6 -5 12 -10 12 -6 0 -7 3 -4
7 4 3 2 12 -4 20 -6 7 -8 13 -4 13 5 0 0 9 -9 19 -10 11 -15 24 -12 30 3 5 1
11 -4 13 -6 2 -13 12 -14 23 -2 11 -9 19 -16 17 -6 -1 -9 2 -5 7 8 14 -17 51
-35 51 -13 0 -13 1 0 10 13 9 7 14 -12 11 -5 0 -8 7 -8 17 0 22 -33 55 -44 45
-4 -5 -6 1 -4 12 2 14 -2 20 -14 19 -10 -1 -14 4 -11 12 3 8 0 14 -6 14 -6 0
-11 7 -11 15 0 8 -7 15 -15 15 -8 0 -15 6 -15 14 0 7 -8 20 -17 27 -15 12 -16
12 -8 -1 4 -8 5 -12 0 -8 -4 4 -13 17 -19 29 -6 12 -14 20 -19 18 -4 -2 -16
11 -27 29 -11 17 -23 32 -26 32 -4 0 0 -8 7 -17 7 -10 0 -7 -16 7 -17 14 -33
29 -36 33 -3 5 -9 8 -13 8 -18 -3 -26 0 -26 9 0 6 7 10 15 10 8 0 15 4 15 9 0
5 11 8 25 6 14 -1 25 2 25 7 0 6 7 7 16 4 9 -4 13 -2 8 5 -4 7 1 9 12 7 11 -2
24 3 31 12 10 12 12 12 13 1 0 -11 5 -10 20 4 11 10 20 15 20 11 0 -5 16 2 36
13 19 12 40 19 45 16 5 -4 9 -1 9 6 0 8 4 8 15 -1 12 -10 16 -9 20 2 4 9 16
14 31 12 13 -1 24 2 24 7 0 4 7 6 15 3 9 -4 15 0 15 7 0 9 3 10 8 4 11 -16 45
-19 37 -3 -6 10 -5 10 5 1 9 -9 15 -9 25 0 14 13 8 40 -6 31 -5 -3 -23 4 -39
16 -17 12 -36 20 -43 17 -6 -2 -22 4 -35 14 -13 10 -30 15 -39 12 -10 -4 -14
-2 -10 4 4 6 -2 13 -13 16 -13 3 -18 1 -13 -6 3 -7 -4 -3 -17 8 -14 12 -20 14
-15 5 7 -12 6 -13 -6 -3 -9 7 -26 15 -40 17 -13 3 -25 5 -26 7 -2 1 -6 2 -10
3 -5 1 -14 5 -20 9 -8 5 -13 3 -13 -4 0 -10 -3 -10 -11 -2 -6 6 -18 9 -27 6
-10 -4 -13 -2 -8 5 4 7 2 12 -3 12 -6 0 -11 -5 -11 -11 0 -8 -4 -8 -12 -2 -7
6 -27 10 -44 10 -16 0 -35 2 -40 6 -6 3 -27 4 -47 1 -25 -3 -37 0 -37 8 0 9
-3 8 -10 -2 -7 -11 -10 -11 -10 -2 0 7 -4 11 -9 8 -4 -3 -6 6 -3 19 2 14 9 22
15 18 6 -4 8 2 5 15 -3 12 -1 23 6 26 7 3 6 5 -2 5 -10 1 -10 5 2 17 14 13 21
42 17 67 0 4 3 7 7 7 5 0 8 10 7 23 -1 12 5 31 14 41 10 12 11 16 2 11 -9 -5
-7 1 4 19 14 20 14 26 4 26 -11 0 -11 2 1 10 8 5 16 14 16 20 1 5 3 11 4 13 1
1 4 13 5 27 1 13 7 26 13 28 5 1 7 12 4 24 -3 14 -1 19 6 14 8 -5 10 -1 5 10
-5 13 -3 15 8 9 12 -7 12 -6 1 7 -9 11 -9 17 -2 20 6 2 12 10 13 18 2 8 6 21
11 28 4 7 5 16 2 19 -3 3 0 15 6 27 7 11 13 26 14 31 5 27 9 40 14 45 11 10
30 62 26 69 -5 7 5 9 62 13 17 2 32 6 32 10 0 5 8 8 17 8 16 0 16 2 2 15 -12
13 -21 14 -43 5 -21 -8 -25 -7 -19 3 4 6 9 21 10 32 4 23 12 32 33 37 8 2 20
10 27 18 11 13 14 13 23 0 8 -13 10 -13 10 2 0 11 6 16 20 13 11 -2 22 1 25 6
4 5 11 7 16 4 5 -4 9 -2 9 3 0 4 16 8 35 7 19 -1 35 1 35 4 0 3 17 7 38 8 57
3 76 7 84 18 5 6 8 4 8 -5 0 -13 1 -13 10 0 5 8 10 10 10 4 0 -11 24 -11 52 0
9 4 21 5 27 2 5 -3 12 0 14 6 4 10 6 10 6 1 1 -9 10 -9 39 1 25 9 44 11 55 4
9 -5 17 -5 17 0 0 5 15 9 33 10 58 3 142 10 142 12 0 1 45 4 100 6 54 3 102 8
105 13 3 5 19 9 35 9 17 0 32 1 35 2 17 6 60 4 60 -3 0 -5 6 -5 13 0 6 6 21 9
31 7 11 -1 28 2 39 8 15 7 18 7 12 -2 -6 -9 -2 -9 15 0 12 6 24 9 28 6 3 -3
14 2 25 11 11 10 17 12 13 6 -4 -7 -2 -13 3 -13 6 0 11 6 11 13 0 9 3 8 9 -2
7 -11 9 -11 14 0 4 11 6 11 6 1 1 -8 6 -10 14 -5 12 8 23 9 80 12 18 1 27 5
21 9 -7 4 20 8 59 9 45 1 73 6 78 15 7 10 9 10 9 -2 0 -13 1 -13 10 0 5 8 10
11 10 6 0 -4 12 -1 26 9 15 9 24 13 21 8 -4 -5 0 -10 8 -10 8 0 11 5 8 10 -4
6 3 8 15 5 15 -4 25 0 31 10 5 10 12 16 15 15 15 -7 37 -2 32 6 -4 5 3 7 14 4
11 -3 20 -1 20 5 0 5 8 9 18 8 9 0 16 4 15 10 -1 6 9 10 23 8 13 -1 22 2 18 7
-3 5 2 9 11 9 9 0 13 5 9 11 -4 7 -1 10 7 7 7 -2 22 5 32 16 10 12 16 14 12 6
-4 -8 3 -5 14 8 11 13 25 21 31 17 6 -4 7 1 3 11 -4 12 -3 15 5 10 7 -4 12 -2
12 3 0 6 10 11 22 11 12 0 18 3 15 7 -7 7 63 59 75 55 4 -1 4 6 1 15 -4 9 -2
14 4 10 5 -3 30 14 56 39 26 25 47 40 47 34 0 -5 9 -1 20 10 25 25 17 42 -15
34 -12 -3 -26 -1 -30 5 -3 6 -11 8 -17 4 -15 -9 -66 -8 -103 3 -16 4 -39 7
-49 6 -11 0 -27 3 -36 8 -11 6 -21 5 -28 -2 -9 -9 -12 -8 -12 3 0 12 -2 12
-10 -1 -9 -13 -10 -13 -10 0 0 13 -1 13 -10 0 -7 -11 -10 -12 -10 -2 0 9 -7
11 -21 7 -12 -4 -19 -3 -16 2 3 5 -16 9 -44 8 -27 -1 -49 3 -49 8 0 4 -4 6 -9
2 -5 -3 -13 -1 -16 5 -5 8 -11 8 -20 0 -9 -7 -16 -6 -25 5 -10 12 -16 13 -26
4 -9 -7 -14 -8 -14 -1 0 5 -16 9 -35 8 -19 -1 -35 2 -35 5 0 4 -11 6 -25 4
-14 -1 -25 1 -25 4 0 3 -23 7 -52 9 -29 2 -57 7 -63 12 -7 6 -16 5 -23 -2 -9
-9 -12 -9 -12 0 0 6 -7 9 -17 5 -11 -4 -14 -3 -9 5 5 8 2 10 -9 6 -8 -4 -22
-1 -29 5 -11 9 -15 9 -20 -1 -5 -10 -7 -10 -12 0 -3 6 -17 12 -30 12 -17 0
-23 -4 -19 -12 4 -7 0 -5 -9 6 -8 10 -19 15 -25 11 -6 -3 -17 -3 -23 2 -7 4
-29 8 -49 8 -21 1 -44 6 -52 13 -11 9 -17 10 -22 2 -4 -7 -11 -7 -18 -2 -7 5
-33 8 -59 8 -25 -1 -46 3 -45 9 1 5 -15 10 -35 10 -21 -1 -38 4 -38 10 0 5 -5
3 -10 -5 -7 -11 -10 -12 -10 -2 0 9 -7 11 -20 7 -11 -3 -20 -2 -20 2 0 5 -15
9 -32 8 -18 0 -39 4 -47 9 -12 9 -13 8 -6 -4 7 -11 2 -10 -19 4 -16 10 -26 14
-22 8 3 -5 -5 -9 -19 -9 -14 0 -22 4 -19 9 4 6 -3 5 -14 -1 -12 -6 -23 -7 -26
-2 -3 5 -25 9 -48 8 -24 0 -53 5 -65 11 -28 15 -36 15 -28 0 4 -7 1 -6 -7 3
-7 9 -19 14 -25 12 -7 -3 -13 0 -13 6 0 7 -11 9 -25 7 -14 -3 -23 -1 -20 3 8
13 -30 19 -50 8 -13 -7 -16 -6 -11 2 4 7 0 11 -11 11 -11 0 -25 6 -32 13 -10
10 -11 8 -6 -8 5 -15 4 -17 -3 -6 -11 15 -5 44 8 36 11 -7 31 20 22 31 -4 4 1
2 11 -5 14 -12 17 -11 17 3 0 9 5 16 10 16 14 0 50 38 50 53 0 8 4 7 10 -3 8
-13 10 -13 10 2 0 9 5 20 12 24 7 5 8 2 3 -7 -5 -8 4 -3 20 11 16 14 25 19 21
13 -5 -9 -2 -11 8 -7 9 3 14 11 13 17 -1 7 4 11 11 9 6 -1 12 6 12 15 0 15 2
16 10 3 6 -10 10 -11 10 -2 0 6 7 12 15 12 8 0 20 9 27 19 6 10 17 17 25 14 7
-3 16 2 19 11 3 9 15 16 25 16 10 0 19 6 19 14 0 8 8 13 18 12 9 0 16 4 15 11
-2 7 4 10 12 7 8 -4 18 1 21 10 5 13 9 14 20 5 11 -9 14 -8 14 5 0 9 7 16 15
16 8 0 15 5 15 12 0 6 3 8 7 5 3 -4 12 1 20 11 8 9 12 11 8 5 -4 -9 -1 -11 9
-7 9 3 16 11 16 16 0 6 7 8 15 4 9 -3 15 0 15 10 0 8 5 12 10 9 6 -3 10 -1 10
4 0 6 7 11 16 11 8 0 12 5 9 10 -4 6 -3 9 2 8 13 -5 93 34 88 42 -3 5 2 11 11
14 10 4 13 2 8 -7 -4 -6 5 -1 21 13 16 14 24 18 20 10 -6 -11 -3 -10 12 3 11
9 24 17 29 17 6 0 19 8 30 18 10 9 28 24 39 32 17 13 18 13 11 0 -4 -8 0 -6 8
4 9 11 16 17 16 13 0 -5 6 -2 14 5 8 7 11 17 8 22 -3 5 0 6 6 2 13 -8 75 28
65 38 -4 4 0 4 9 1 10 -4 22 2 31 16 10 14 22 19 32 15 9 -3 13 -2 10 4 -3 6
-2 10 4 10 5 0 17 7 25 16 11 10 16 11 16 3 0 -6 12 0 26 15 24 23 38 31 47
24 2 -2 11 4 20 12 35 32 47 40 47 33 0 -4 5 0 11 10 5 9 17 17 25 17 8 0 12
5 9 10 -3 6 1 10 9 10 16 0 80 34 107 57 9 8 23 13 30 11 8 -2 13 2 12 9 -2 8
4 10 14 6 11 -4 14 -3 9 5 -5 8 1 12 18 12 33 0 57 10 50 21 -3 5 4 9 16 9 14
0 19 4 14 13 -5 8 -3 8 9 -2 14 -11 18 -11 23 3 4 10 13 15 21 12 7 -3 16 1
20 10 5 13 7 13 14 2 7 -10 9 -10 9 0 0 6 9 12 19 12 10 0 22 7 25 16 3 8 10
12 16 9 5 -3 10 -2 10 4 0 6 7 7 17 4 10 -4 14 -2 10 4 -4 7 7 13 28 17 20 4
33 11 30 16 -3 5 4 7 15 5 11 -2 20 1 20 6 0 6 5 7 10 4 6 -3 10 2 11 12 0 11
3 13 6 5 4 -10 8 -10 21 0 10 8 13 8 9 1 -5 -8 -1 -8 18 0 14 7 25 19 25 27 0
12 2 12 9 1 6 -10 10 -10 16 -1 4 6 13 9 21 6 7 -3 16 0 20 6 5 7 2 8 -6 3 -9
-5 -11 -4 -6 4 4 6 11 9 16 6 11 -7 41 5 36 14 -3 4 3 7 12 8 40 2 83 11 90
18 4 5 0 6 -9 2 -11 -4 -16 0 -15 11 1 12 -7 17 -23 17 -14 0 -26 6 -29 13 -2
7 -8 10 -13 6 -5 -3 -9 -1 -9 3 0 5 -12 10 -27 11 -15 1 -29 5 -32 10 -3 4
-14 8 -25 10 -12 2 -16 -1 -10 -10 4 -7 -2 -5 -13 5 -11 9 -23 14 -26 10 -4
-3 -7 -1 -7 5 0 6 -7 9 -15 6 -8 -4 -15 -1 -15 5 0 6 -7 8 -15 5 -8 -4 -15 -1
-15 4 0 6 -9 9 -20 7 -11 -2 -20 1 -20 6 0 6 -4 8 -8 5 -5 -3 -21 1 -36 9 -14
8 -24 10 -21 6 3 -5 -4 -7 -15 -4 -11 3 -17 10 -13 15 3 6 0 8 -8 6 -8 -3 -27
1 -43 9 -22 12 -26 12 -20 1 6 -9 1 -9 -16 3 -14 8 -37 14 -53 13 -17 -2 -25
1 -21 7 4 6 -2 9 -13 7 -11 -2 -28 4 -38 12 -11 9 -16 10 -11 3 4 -8 2 -13 -8
-13 -8 0 -17 4 -20 9 -3 5 -19 7 -36 5 -21 -3 -29 0 -24 7 4 8 0 7 -15 0 -15
-8 -21 -9 -21 -1 0 6 -4 8 -10 5 -5 -3 -10 -2 -10 3 0 11 -40 10 -59 -2 -10
-6 -12 -5 -7 2 4 7 4 12 -1 13 -4 0 -43 1 -85 3 -42 1 -80 5 -84 9 -4 4 -14 1
-22 -6 -12 -10 -16 -9 -20 1 -3 10 -7 10 -18 1 -9 -7 -14 -8 -14 -1 0 7 -10 8
-30 2 -20 -6 -30 -5 -30 2 0 7 -4 7 -13 0 -8 -7 -18 -7 -27 -2 -8 5 -27 3 -47
-5 -19 -8 -31 -10 -28 -6 6 11 -35 2 -52 -11 -7 -5 -14 -5 -18 2 -3 6 -11 7
-17 4 -9 -6 -59 -13 -123 -18 -11 0 -23 -5 -27 -11 -5 -7 -10 -7 -15 0 -11 13
-45 16 -36 2 4 -6 -4 -8 -21 -5 -14 3 -26 1 -26 -3 0 -5 -7 -6 -15 -3 -8 4
-22 1 -29 -5 -10 -9 -16 -9 -21 -1 -5 8 -11 8 -19 1 -7 -6 -33 -12 -58 -13
-26 -2 -44 -7 -40 -12 3 -5 -8 -6 -26 -3 -26 5 -30 4 -25 -10 5 -13 3 -14 -12
-5 -12 6 -28 7 -42 1 -13 -5 -23 -5 -23 -1 0 4 -7 -2 -15 -12 -8 -11 -15 -14
-15 -8 0 9 -5 10 -19 2 -14 -7 -21 -6 -24 3 -4 9 -6 9 -6 -1 -1 -7 -5 -10 -11
-7 -5 3 -10 1 -10 -6 0 -9 -3 -9 -14 0 -11 9 -16 9 -22 0 -5 -8 -3 -9 6 -4 9
5 11 4 6 -4 -4 -6 -13 -8 -19 -4 -18 11 -37 12 -37 3 0 -5 -9 -7 -20 -5 -11 2
-22 1 -24 -3 -2 -4 -25 -7 -50 -6 -25 1 -44 -1 -42 -5 2 -3 -23 -7 -57 -8 -35
-2 -64 -8 -69 -15 -6 -10 -8 -10 -8 0 0 8 -8 12 -17 9 -10 -2 -31 3 -48 11
-29 15 -29 14 -15 -4 8 -10 1 -7 -16 9 -32 28 -50 36 -38 15 5 -9 3 -9 -9 1
-9 7 -14 18 -10 24 4 6 1 7 -6 3 -7 -5 -19 0 -27 10 -9 11 -12 12 -8 4 5 -10
-1 -8 -16 5 -15 13 -21 15 -16 5 4 -9 2 -8 -7 3 -8 9 -19 17 -25 17 -6 0 -13
6 -15 13 -4 9 -6 9 -6 -2 -1 -8 -9 -5 -22 10 -11 13 -17 17 -13 9 4 -8 -5 -4
-21 10 -16 14 -25 20 -22 14 3 -6 0 -11 -8 -11 -8 0 -12 4 -9 9 7 11 -27 38
-38 31 -5 -2 -15 3 -23 11 -9 8 -23 12 -32 9 -10 -4 -14 -2 -10 4 4 6 -4 14
-18 17 -14 4 -25 11 -25 16 0 5 -9 7 -20 5 -11 -2 -20 1 -20 6 0 6 -4 8 -9 4
-5 -3 -12 -1 -16 5 -4 6 -11 8 -16 4 -6 -3 -17 2 -25 12 -9 11 -12 12 -8 4 5
-10 -1 -8 -16 5 -15 13 -21 15 -16 5 4 -8 0 -6 -9 5 -9 11 -22 19 -29 17 -7
-1 -19 5 -26 13 -7 8 -19 15 -27 15 -8 0 -29 10 -46 22 -18 13 -27 16 -22 7 6
-11 5 -12 -6 -1 -7 6 -22 12 -34 12 -12 0 -27 6 -34 13 -11 10 -13 10 -7 0 9
-16 1 -16 -25 -2 -14 7 -24 7 -33 0 -9 -7 -16 -7 -24 1 -9 9 -12 9 -12 -2 0
-13 -2 -13 -10 0 -5 8 -10 11 -10 5z m90 -910 c30 -4 83 -16 117 -27 61 -19
201 -86 229 -109 8 -6 14 -8 14 -5 0 4 13 -2 30 -14 16 -11 54 -32 84 -45 30
-13 57 -28 60 -34 4 -6 0 -25 -7 -43 -13 -30 -112 -187 -136 -214 -5 -7 -7
-14 -5 -17 3 -3 -4 -10 -15 -17 -12 -6 -21 -16 -21 -23 0 -7 -9 -23 -20 -35
-11 -12 -20 -25 -20 -29 0 -7 -118 -124 -152 -149 -32 -25 -192 -64 -234 -58
-10 2 -39 6 -64 9 -101 13 -117 16 -161 30 -25 9 -55 18 -67 20 -12 3 -31 7
-41 9 -10 3 -33 12 -50 20 -17 9 -32 15 -33 14 -2 -2 -17 7 -34 19 -17 12 -34
20 -38 16 -3 -3 -6 -1 -6 6 0 7 -4 10 -9 6 -6 -3 -14 3 -20 12 -6 10 -11 15
-11 10 0 -12 -52 19 -94 58 l-38 35 33 52 c60 93 140 192 220 271 44 42 81 77
84 77 3 0 20 14 38 31 48 46 118 71 124 44 1 -5 5 -23 8 -39 3 -17 15 -66 26
-110 11 -45 22 -92 25 -105 8 -39 93 -205 111 -218 9 -7 13 -13 9 -13 -4 0 5
-15 19 -34 32 -42 60 -51 84 -25 15 16 18 34 16 107 -2 48 -8 107 -15 132 -17
67 -51 163 -62 178 -6 6 -8 12 -4 12 3 0 -16 43 -44 95 -27 52 -50 97 -50 99
0 7 33 14 50 10 8 -1 40 -6 70 -9z"/>
<path d="M3895 699 c-4 -6 -5 -12 -2 -15 2 -3 7 2 10 11 7 17 1 20 -8 4z"/>
</g>
</svg>
